<svg xmlns="http://www.w3.org/2000/svg" xmlns:svgjs="http://svgjs.com/svgjs" xmlns:xlink="http://www.w3.org/1999/xlink" width="288" height="288"><svg xmlns="http://www.w3.org/2000/svg" width="288" height="288" fill="#fff" viewBox="0 -256 1792 1792"><path d="m 1075,800 q 0,-13 -10,-23 L 599,311 q -10,-10 -23,-10 -13,0 -23,10 L 87,777 q -10,10 -10,23 0,13 10,23 l 50,50 q 10,10 23,10 13,0 23,-10 L 576,480 969,873 q 10,10 23,10 13,0 23,-10 l 50,-50 q 10,-10 10,-23 z" class="colorcurrentColor svgShape" transform="matrix(1 0 0 -1 288.542 1255.05)"/></svg></svg>