<?xml version="1.0" standalone="no"?>
<!DOCTYPE svg PUBLIC "-//W3C//DTD SVG 20010904//EN"
 "http://www.w3.org/TR/2001/REC-SVG-20010904/DTD/svg10.dtd">
<svg version="1.0" xmlns="http://www.w3.org/2000/svg"
 width="512.000000pt" height="512.000000pt" viewBox="0 0 512.000000 512.000000"
 preserveAspectRatio="xMidYMid meet">

<g transform="translate(0.000000,512.000000) scale(0.100000,-0.100000)"
fill="#000000" stroke="none">
<path d="M1405 4956 c-588 -89 -1088 -169 -1110 -176 -129 -42 -223 -164 -232
-299 -4 -50 23 -245 107 -800 61 -404 115 -742 121 -752 15 -29 51 -49 87 -49
46 0 71 16 88 55 13 32 6 89 -96 762 -61 400 -110 743 -110 763 0 41 28 92 65
116 17 11 139 34 378 70 1481 225 1823 275 1853 270 39 -8 80 -38 99 -75 16
-32 545 -3521 545 -3597 0 -62 -25 -111 -76 -147 -37 -26 -81 -34 -1099 -188
-619 -94 -1077 -159 -1101 -156 -47 5 -84 29 -108 68 -10 18 -50 251 -111 660
-53 349 -101 647 -107 662 -25 64 -108 78 -159 28 -17 -17 -29 -40 -29 -55 0
-49 191 -1292 205 -1334 43 -131 185 -232 324 -232 25 0 194 23 375 50 181 28
335 50 341 50 7 0 22 -27 34 -60 29 -80 103 -160 184 -200 56 -27 160 -47
1121 -210 582 -99 1078 -180 1102 -180 61 0 160 35 216 76 57 41 112 112 133
174 9 25 151 837 316 1805 334 1957 320 1848 261 1968 -38 77 -111 149 -186
183 -40 18 -175 45 -552 109 -274 47 -605 103 -734 125 -129 22 -324 55 -433
74 -109 18 -200 35 -202 37 -2 3 -15 75 -28 160 -14 86 -34 177 -45 202 -50
114 -174 197 -302 203 -47 2 -366 -42 -1135 -160z m2472 -775 c817 -139 875
-150 908 -175 44 -34 75 -93 75 -143 0 -21 -135 -827 -299 -1791 -271 -1592
-301 -1756 -324 -1791 -28 -42 -96 -81 -141 -81 -15 0 -384 61 -819 135 -436
74 -884 151 -997 170 -113 19 -224 38 -246 41 -23 3 -59 16 -80 28 -39 22 -87
81 -81 100 2 6 26 14 53 18 412 60 1187 181 1218 189 55 15 115 46 148 76 l26
25 213 -37 c127 -22 226 -34 246 -30 62 11 91 82 58 144 -19 38 -44 46 -225
76 -218 35 -200 29 -200 74 0 22 -11 111 -25 198 -14 87 -25 161 -25 164 0 3
102 -11 228 -32 280 -48 295 -48 333 -10 51 51 33 128 -35 156 -17 7 -149 32
-293 56 -236 39 -262 45 -267 64 -11 45 -87 577 -84 581 2 2 136 -19 297 -46
310 -53 343 -56 388 -39 60 22 112 100 113 166 0 28 -311 887 -346 954 -35 69
-121 107 -198 88 -56 -14 -78 -35 -235 -227 -69 -84 -127 -152 -131 -152 -3 0
-45 267 -94 593 -49 325 -91 598 -94 605 -3 10 4 12 29 7 19 -3 427 -73 906
-154z m-198 -1281 c79 -215 141 -393 137 -397 -5 -5 -504 74 -592 94 -18 4
-22 19 -38 128 -10 71 -14 130 -9 138 12 22 347 426 353 426 3 1 70 -175 149
-389z"/>
<path d="M1513 4230 c-57 -12 -98 -34 -138 -78 -56 -61 -406 -542 -426 -586
-40 -89 -13 -223 57 -287 47 -42 525 -391 574 -419 67 -37 165 -36 238 5 57
31 49 21 329 400 177 240 178 241 178 335 0 127 -21 153 -260 327 -77 57 -189
139 -250 184 -153 113 -212 136 -302 119z m357 -408 c209 -155 256 -193 258
-215 3 -21 -34 -78 -179 -274 -206 -280 -225 -303 -252 -303 -10 0 -142 91
-293 201 -248 183 -274 205 -274 230 0 22 48 95 193 292 107 144 204 267 217
274 32 16 32 16 330 -205z"/>
<path d="M379 2591 c-22 -22 -29 -39 -29 -68 0 -50 22 -80 69 -94 101 -30 170
98 89 166 -42 35 -91 34 -129 -4z"/>
<path d="M1773 2330 c-399 -61 -580 -93 -598 -104 -81 -53 -42 -176 55 -176
73 0 1222 179 1245 194 29 19 49 69 41 102 -4 14 -18 37 -31 50 -20 20 -33 24
-82 23 -32 -1 -316 -41 -630 -89z"/>
<path d="M1881 1696 c-596 -91 -604 -93 -627 -120 -47 -53 -21 -146 44 -161
23 -5 1200 165 1254 181 30 9 58 54 58 95 0 53 -33 89 -85 94 -22 2 -312 -38
-644 -89z"/>
</g>
</svg>
